<svg width="18" height="18" viewBox="0 0 18 18" fill="none" xmlns="http://www.w3.org/2000/svg">
<path d="M11.7062 12.425L13.1062 11.025C13.2948 10.8388 13.5334 10.7113 13.793 10.6581C14.0526 10.6048 14.3221 10.6281 14.5687 10.725L16.275 11.4063C16.5242 11.5074 16.738 11.6801 16.8892 11.9026C17.0405 12.125 17.1225 12.3873 17.125 12.6563V15.7813C17.1235 15.9643 17.0851 16.1451 17.0119 16.3128C16.9387 16.4805 16.8324 16.6317 16.6993 16.7573C16.5661 16.8828 16.409 16.9801 16.2372 17.0433C16.0655 17.1065 15.8827 17.1343 15.7 17.125C3.74374 16.3813 1.33124 6.25628 0.874992 2.38128C0.853813 2.19099 0.873164 1.99837 0.931772 1.81609C0.990381 1.63382 1.08692 1.46602 1.21503 1.32374C1.34315 1.18145 1.49994 1.0679 1.67509 0.990565C1.85024 0.913227 2.03978 0.873851 2.23124 0.875026H5.24999C5.51937 0.875823 5.78235 0.957193 6.00511 1.10867C6.22787 1.26015 6.40022 1.4748 6.49999 1.72503L7.18124 3.43128C7.2814 3.67694 7.30695 3.94668 7.25471 4.20678C7.20247 4.46689 7.07474 4.70584 6.88749 4.89378L5.48749 6.29378C5.48749 6.29378 6.29374 11.75 11.7062 12.425Z" fill="white"/>
</svg>
